<?xml version="1.0" standalone="no"?>
<!DOCTYPE svg PUBLIC "-//W3C//DTD SVG 20010904//EN"
 "http://www.w3.org/TR/2001/REC-SVG-20010904/DTD/svg10.dtd">
<svg version="1.0" xmlns="http://www.w3.org/2000/svg"
 width="102.000000pt" height="102.000000pt" viewBox="0 0 102.000000 102.000000"
 preserveAspectRatio="xMidYMid meet">
<metadata>
Created by potrace 1.11, written by Peter Selinger 2001-2013
</metadata>
<g transform="translate(0.000000,102.000000) scale(0.100000,-0.100000)"
fill="#000000" stroke="none">
<path d="M480 1013 c-1 -4 0 -115 0 -245 l1 -238 -63 0 c-50 0 -66 4 -86 23
-23 21 -24 21 -37 4 -9 -13 -35 -21 -85 -28 -40 -6 -74 -9 -76 -6 -5 5 11 135
17 142 3 2 47 11 97 18 51 8 95 17 98 20 4 4 1 13 -5 21 -17 20 -4 161 17 199
15 26 15 28 -5 49 -21 21 -23 21 -41 5 -13 -12 -57 -23 -138 -33 -66 -9 -120
-16 -121 -17 -1 -1 9 -14 21 -28 23 -26 23 -26 87 -14 149 30 142 30 135 -2
-3 -15 -8 -54 -12 -86 -7 -63 -3 -60 -95 -72 -45 -6 -47 -5 -57 25 -18 50 -32
35 -32 -32 -1 -104 -17 -200 -34 -210 -15 -8 -14 -12 4 -38 20 -27 22 -28 53
-15 45 18 157 30 157 16 0 -61 -75 -351 -91 -351 -4 0 -29 19 -56 42 -65 56
-70 29 -9 -46 25 -31 50 -65 56 -76 17 -31 25 -25 54 39 31 70 60 180 82 311
9 52 20 99 25 104 5 6 16 3 28 -8 13 -12 27 -15 45 -10 l26 6 0 -199 c0 -141
-3 -202 -12 -211 -9 -9 -7 -18 9 -39 11 -16 23 -26 26 -23 4 3 48 44 98 92 69
65 88 89 76 93 -9 4 -40 -11 -79 -40 l-63 -46 -3 148 c-1 81 2 159 7 174 6 17
6 30 -1 37 -5 5 -6 12 -1 15 4 3 106 15 225 28 120 13 218 26 218 29 0 10 -71
51 -79 46 -7 -5 -299 -46 -322 -46 -5 0 -9 21 -9 48 l0 47 38 1 c42 0 262 31
268 37 2 2 -9 13 -26 25 -28 21 -32 21 -92 8 -35 -8 -91 -17 -125 -21 l-63 -7
0 64 c1 56 2 61 14 45 14 -18 19 -18 145 0 72 10 131 21 131 24 0 3 -9 14 -20
24 -20 18 -24 18 -118 1 -170 -30 -152 -32 -152 19 0 25 4 45 8 45 4 0 70 9
147 20 77 11 147 20 155 20 10 0 6 8 -12 26 l-26 26 -88 -15 c-49 -9 -112 -19
-140 -22 -50 -6 -51 -6 -64 24 -12 31 -30 50 -30 34z"/>
<path d="M767 473 c-8 -35 -78 -128 -97 -128 -8 0 -28 26 -44 58 -27 52 -32
57 -63 57 -38 0 -41 -9 -12 -36 30 -27 218 -312 226 -342 6 -24 8 -24 66 -18
33 3 75 6 93 6 27 0 34 4 34 20 0 18 -7 20 -54 20 -70 0 -106 25 -174 120
l-54 75 44 40 c24 23 53 48 66 57 22 15 23 18 11 57 -14 47 -34 54 -42 14z"/>
</g>
</svg>
